{
    "asset" : {
        "generator" : "Khronos glTF Blender I/O v1.1.46",
        "version" : "2.0"
    },
    "scene" : 0,
    "scenes" : [
        {
            "name" : "Scene",
            "nodes" : [
                0
            ]
        }
    ],
    "nodes" : [
        {
            "mesh" : 0,
            "name" : "Sphere"
        }
    ],
    "materials" : [
        {
            "doubleSided" : true,
            "emissiveFactor" : [
                0,
                0,
                0
            ],
            "name" : "Material.004",
            "pbrMetallicRoughness" : {
                "baseColorTexture" : {
                    "index" : 0,
                    "texCoord" : 0
                },
                "metallicRoughnessTexture" : {
                    "index" : 1,
                    "texCoord" : 0
                }
            }
        }
    ],
    "meshes" : [
        {
            "name" : "Sphere.003",
            "primitives" : [
                {
                    "attributes" : {
                        "POSITION" : 0,
                        "NORMAL" : 1,
                        "TANGENT" : 2,
                        "TEXCOORD_0" : 3
                    },
                    "indices" : 4,
                    "material" : 0
                }
            ]
        }
    ],
    "textures" : [
        {
            "source" : 0
        },
        {
            "source" : 1
        }
    ],
    "images" : [
        {
            "mimeType" : "image/png",
            "name" : "Albedo",
            "uri" : "textures/Albedo.png"
        },
        {
            "mimeType" : "image/png",
            "name" : "Ocean_Mask",
            "uri" : "textures/Ocean_Mask.png"
        }
    ],
    "accessors" : [
        {
            "bufferView" : 0,
            "componentType" : 5126,
            "count" : 32512,
            "max" : [
                49.99998092651367,
                50,
                49.99990463256836
            ],
            "min" : [
                -50.000022888183594,
                -50,
                -50.000091552734375
            ],
            "type" : "VEC3"
        },
        {
            "bufferView" : 1,
            "componentType" : 5126,
            "count" : 32512,
            "type" : "VEC3"
        },
        {
            "bufferView" : 2,
            "componentType" : 5126,
            "count" : 32512,
            "type" : "VEC4"
        },
        {
            "bufferView" : 3,
            "componentType" : 5126,
            "count" : 32512,
            "type" : "VEC2"
        },
        {
            "bufferView" : 4,
            "componentType" : 5123,
            "count" : 48384,
            "type" : "SCALAR"
        }
    ],
    "bufferViews" : [
        {
            "buffer" : 0,
            "byteLength" : 390144,
            "byteOffset" : 0
        },
        {
            "buffer" : 0,
            "byteLength" : 390144,
            "byteOffset" : 390144
        },
        {
            "buffer" : 0,
            "byteLength" : 520192,
            "byteOffset" : 780288
        },
        {
            "buffer" : 0,
            "byteLength" : 260096,
            "byteOffset" : 1300480
        },
        {
            "buffer" : 0,
            "byteLength" : 96768,
            "byteOffset" : 1560576
        }
    ],
    "buffers" : [
        {
            "byteLength" : 1657344,
            "uri" : "planet-sphere.bin"
        }
    ]
}
