{
    "asset" : {
        "copyright" : "Oguzhan Yagci",
        "generator" : "Khronos glTF Blender I/O v1.1.46",
        "version" : "2.0"
    },
    "scene" : 0,
    "scenes" : [
        {
            "name" : "Scene",
            "nodes" : [
                0,
                1,
                2
            ]
        }
    ],
    "nodes" : [
        {
            "mesh" : 0,
            "name" : "Cube"
        },
        {
            "mesh" : 1,
            "name" : "Cube.001"
        },
        {
            "mesh" : 2,
            "name" : "Cube.002"
        }
    ],
    "materials" : [
        {
            "doubleSided" : true,
            "emissiveFactor" : [
                0,
                0,
                0
            ],
            "name" : "Concrete_Wall_2x2_ugfnacws",
            "normalTexture" : {
                "index" : 0,
                "texCoord" : 0
            },
            "pbrMetallicRoughness" : {
                "baseColorTexture" : {
                    "index" : 1,
                    "texCoord" : 0
                },
                "metallicFactor" : 0,
                "metallicRoughnessTexture" : {
                    "index" : 2,
                    "texCoord" : 0
                }
            }
        },
        {
            "doubleSided" : true,
            "emissiveFactor" : [
                0,
                0,
                0
            ],
            "name" : "Black-Plastic-Window",
            "pbrMetallicRoughness" : {
                "baseColorFactor" : [
                    0.006370244547724724,
                    0.006370244547724724,
                    0.006370244547724724,
                    1
                ],
                "metallicFactor" : 0,
                "roughnessFactor" : 0.2257142961025238
            }
        },
        {
            "doubleSided" : true,
            "emissiveFactor" : [
                0,
                0,
                0
            ],
            "name" : "Window-Sky",
            "pbrMetallicRoughness" : {
                "baseColorFactor" : [
                    0.24228110909461975,
                    0.6172067523002625,
                    0.8307698369026184,
                    1
                ],
                "metallicFactor" : 0,
                "roughnessFactor" : 1
            }
        }
    ],
    "meshes" : [
        {
            "name" : "Cube",
            "primitives" : [
                {
                    "attributes" : {
                        "POSITION" : 0,
                        "NORMAL" : 1,
                        "TANGENT" : 2,
                        "TEXCOORD_0" : 3
                    },
                    "indices" : 4,
                    "material" : 0
                }
            ]
        },
        {
            "name" : "Cube.003",
            "primitives" : [
                {
                    "attributes" : {
                        "POSITION" : 5,
                        "NORMAL" : 6,
                        "TANGENT" : 7,
                        "TEXCOORD_0" : 8
                    },
                    "indices" : 9,
                    "material" : 1
                },
                {
                    "attributes" : {
                        "POSITION" : 10,
                        "NORMAL" : 11,
                        "TANGENT" : 12,
                        "TEXCOORD_0" : 13
                    },
                    "indices" : 14,
                    "material" : 2
                }
            ]
        },
        {
            "name" : "Cube.009",
            "primitives" : [
                {
                    "attributes" : {
                        "POSITION" : 15,
                        "NORMAL" : 16,
                        "TANGENT" : 17,
                        "TEXCOORD_0" : 18
                    },
                    "indices" : 9,
                    "material" : 1
                },
                {
                    "attributes" : {
                        "POSITION" : 19,
                        "NORMAL" : 20,
                        "TANGENT" : 21,
                        "TEXCOORD_0" : 22
                    },
                    "indices" : 14,
                    "material" : 2
                }
            ]
        }
    ],
    "textures" : [
        {
            "source" : 0
        },
        {
            "source" : 1
        },
        {
            "source" : 2
        }
    ],
    "images" : [
        {
            "mimeType" : "image/jpeg",
            "name" : "ugfnacws_2K_Normal",
            "uri" : "textures/ugfnacws_2K_Normal.jpg"
        },
        {
            "mimeType" : "image/jpeg",
            "name" : "ugfnacws_2K_Albedo",
            "uri" : "textures/ugfnacws_2K_Albedo.jpg"
        },
        {
            "mimeType" : "image/jpeg",
            "name" : "ugfnacws_2K_Roughness",
            "uri" : "textures/ugfnacws_2K_Roughness.jpg"
        }
    ],
    "accessors" : [
        {
            "bufferView" : 0,
            "componentType" : 5126,
            "count" : 404,
            "max" : [
                100.00003051757812,
                200,
                101.6221694946289
            ],
            "min" : [
                -99.9999771118164,
                0,
                79.99996948242188
            ],
            "type" : "VEC3"
        },
        {
            "bufferView" : 1,
            "componentType" : 5126,
            "count" : 404,
            "type" : "VEC3"
        },
        {
            "bufferView" : 2,
            "componentType" : 5126,
            "count" : 404,
            "type" : "VEC4"
        },
        {
            "bufferView" : 3,
            "componentType" : 5126,
            "count" : 404,
            "type" : "VEC2"
        },
        {
            "bufferView" : 4,
            "componentType" : 5123,
            "count" : 618,
            "type" : "SCALAR"
        },
        {
            "bufferView" : 5,
            "componentType" : 5126,
            "count" : 94,
            "max" : [
                -16.999969482421875,
                200,
                92.00003051757812
            ],
            "min" : [
                -89.99996948242188,
                100,
                90.00000762939453
            ],
            "type" : "VEC3"
        },
        {
            "bufferView" : 6,
            "componentType" : 5126,
            "count" : 94,
            "type" : "VEC3"
        },
        {
            "bufferView" : 7,
            "componentType" : 5126,
            "count" : 94,
            "type" : "VEC4"
        },
        {
            "bufferView" : 8,
            "componentType" : 5126,
            "count" : 94,
            "type" : "VEC2"
        },
        {
            "bufferView" : 9,
            "componentType" : 5123,
            "count" : 144,
            "type" : "SCALAR"
        },
        {
            "bufferView" : 10,
            "componentType" : 5126,
            "count" : 4,
            "max" : [
                -23.08330726623535,
                193.3333282470703,
                90.46578216552734
            ],
            "min" : [
                -83.91663360595703,
                106.66665649414062,
                90.46575927734375
            ],
            "type" : "VEC3"
        },
        {
            "bufferView" : 11,
            "componentType" : 5126,
            "count" : 4,
            "type" : "VEC3"
        },
        {
            "bufferView" : 12,
            "componentType" : 5126,
            "count" : 4,
            "type" : "VEC4"
        },
        {
            "bufferView" : 13,
            "componentType" : 5126,
            "count" : 4,
            "type" : "VEC2"
        },
        {
            "bufferView" : 14,
            "componentType" : 5123,
            "count" : 6,
            "type" : "SCALAR"
        },
        {
            "bufferView" : 15,
            "componentType" : 5126,
            "count" : 94,
            "max" : [
                90.00003051757812,
                200,
                91.99999237060547
            ],
            "min" : [
                17.000028610229492,
                100,
                89.99996948242188
            ],
            "type" : "VEC3"
        },
        {
            "bufferView" : 16,
            "componentType" : 5126,
            "count" : 94,
            "type" : "VEC3"
        },
        {
            "bufferView" : 17,
            "componentType" : 5126,
            "count" : 94,
            "type" : "VEC4"
        },
        {
            "bufferView" : 18,
            "componentType" : 5126,
            "count" : 94,
            "type" : "VEC2"
        },
        {
            "bufferView" : 19,
            "componentType" : 5126,
            "count" : 4,
            "max" : [
                83.91669464111328,
                193.3333282470703,
                90.46574401855469
            ],
            "min" : [
                23.083364486694336,
                106.66665649414062,
                90.4657211303711
            ],
            "type" : "VEC3"
        },
        {
            "bufferView" : 20,
            "componentType" : 5126,
            "count" : 4,
            "type" : "VEC3"
        },
        {
            "bufferView" : 21,
            "componentType" : 5126,
            "count" : 4,
            "type" : "VEC4"
        },
        {
            "bufferView" : 22,
            "componentType" : 5126,
            "count" : 4,
            "type" : "VEC2"
        }
    ],
    "bufferViews" : [
        {
            "buffer" : 0,
            "byteLength" : 4848,
            "byteOffset" : 0
        },
        {
            "buffer" : 0,
            "byteLength" : 4848,
            "byteOffset" : 4848
        },
        {
            "buffer" : 0,
            "byteLength" : 6464,
            "byteOffset" : 9696
        },
        {
            "buffer" : 0,
            "byteLength" : 3232,
            "byteOffset" : 16160
        },
        {
            "buffer" : 0,
            "byteLength" : 1236,
            "byteOffset" : 19392
        },
        {
            "buffer" : 0,
            "byteLength" : 1128,
            "byteOffset" : 20628
        },
        {
            "buffer" : 0,
            "byteLength" : 1128,
            "byteOffset" : 21756
        },
        {
            "buffer" : 0,
            "byteLength" : 1504,
            "byteOffset" : 22884
        },
        {
            "buffer" : 0,
            "byteLength" : 752,
            "byteOffset" : 24388
        },
        {
            "buffer" : 0,
            "byteLength" : 288,
            "byteOffset" : 25140
        },
        {
            "buffer" : 0,
            "byteLength" : 48,
            "byteOffset" : 25428
        },
        {
            "buffer" : 0,
            "byteLength" : 48,
            "byteOffset" : 25476
        },
        {
            "buffer" : 0,
            "byteLength" : 64,
            "byteOffset" : 25524
        },
        {
            "buffer" : 0,
            "byteLength" : 32,
            "byteOffset" : 25588
        },
        {
            "buffer" : 0,
            "byteLength" : 12,
            "byteOffset" : 25620
        },
        {
            "buffer" : 0,
            "byteLength" : 1128,
            "byteOffset" : 25632
        },
        {
            "buffer" : 0,
            "byteLength" : 1128,
            "byteOffset" : 26760
        },
        {
            "buffer" : 0,
            "byteLength" : 1504,
            "byteOffset" : 27888
        },
        {
            "buffer" : 0,
            "byteLength" : 752,
            "byteOffset" : 29392
        },
        {
            "buffer" : 0,
            "byteLength" : 48,
            "byteOffset" : 30144
        },
        {
            "buffer" : 0,
            "byteLength" : 48,
            "byteOffset" : 30192
        },
        {
            "buffer" : 0,
            "byteLength" : 64,
            "byteOffset" : 30240
        },
        {
            "buffer" : 0,
            "byteLength" : 32,
            "byteOffset" : 30304
        }
    ],
    "buffers" : [
        {
            "byteLength" : 30336,
            "uri" : "Cluster-Window.bin"
        }
    ]
}
