{
    "asset" : {
        "copyright" : "Oguzhan Yagci",
        "generator" : "Khronos glTF Blender I/O v1.1.46",
        "version" : "2.0"
    },
    "scene" : 0,
    "scenes" : [
        {
            "name" : "Scene",
            "nodes" : [
                0,
                1,
                2,
                3
            ]
        }
    ],
    "nodes" : [
        {
            "mesh" : 0,
            "name" : "Door-Frame"
        },
        {
            "mesh" : 1,
            "name" : "Door-Left"
        },
        {
            "mesh" : 2,
            "name" : "Door-Right"
        },
        {
            "mesh" : 3,
            "name" : "Cube.007"
        }
    ],
    "materials" : [
        {
            "doubleSided" : true,
            "emissiveFactor" : [
                0,
                0,
                0
            ],
            "name" : "Brushed_Aluminum_shkaaafc",
            "normalTexture" : {
                "index" : 0,
                "texCoord" : 0
            },
            "pbrMetallicRoughness" : {
                "baseColorTexture" : {
                    "index" : 1,
                    "texCoord" : 0
                },
                "metallicFactor" : 1,
                "metallicRoughnessTexture" : {
                    "index" : 2,
                    "texCoord" : 0
                }
            }
        },
        {
            "doubleSided" : true,
            "emissiveFactor" : [
                0,
                0,
                0
            ],
            "name" : "English_Bond_Teak_Parquet_2x2_udemeefv",
            "normalTexture" : {
                "index" : 3,
                "texCoord" : 0
            },
            "pbrMetallicRoughness" : {
                "baseColorTexture" : {
                    "index" : 4,
                    "texCoord" : 0
                },
                "metallicFactor" : 0,
                "metallicRoughnessTexture" : {
                    "index" : 5,
                    "texCoord" : 0
                }
            }
        },
        {
            "doubleSided" : true,
            "emissiveFactor" : [
                0,
                0,
                0
            ],
            "name" : "Painted_Metal_Door_2x1_ugzobcglw",
            "normalTexture" : {
                "index" : 6,
                "texCoord" : 0
            },
            "pbrMetallicRoughness" : {
                "baseColorTexture" : {
                    "index" : 7,
                    "texCoord" : 0
                },
                "metallicFactor" : 1,
                "metallicRoughnessTexture" : {
                    "index" : 8,
                    "texCoord" : 0
                }
            }
        }
    ],
    "meshes" : [
        {
            "name" : "Cube.012",
            "primitives" : [
                {
                    "attributes" : {
                        "POSITION" : 0,
                        "NORMAL" : 1,
                        "TANGENT" : 2,
                        "TEXCOORD_0" : 3
                    },
                    "indices" : 4,
                    "material" : 0
                }
            ]
        },
        {
            "name" : "Cube.013",
            "primitives" : [
                {
                    "attributes" : {
                        "POSITION" : 5,
                        "NORMAL" : 6,
                        "TANGENT" : 7,
                        "TEXCOORD_0" : 8
                    },
                    "indices" : 9,
                    "material" : 1
                }
            ]
        },
        {
            "name" : "Cube.014",
            "primitives" : [
                {
                    "attributes" : {
                        "POSITION" : 10,
                        "NORMAL" : 11,
                        "TANGENT" : 12,
                        "TEXCOORD_0" : 13
                    },
                    "indices" : 14,
                    "material" : 1
                }
            ]
        },
        {
            "name" : "Cube.022",
            "primitives" : [
                {
                    "attributes" : {
                        "POSITION" : 15,
                        "NORMAL" : 16,
                        "TANGENT" : 17,
                        "TEXCOORD_0" : 18
                    },
                    "indices" : 19,
                    "material" : 2
                }
            ]
        }
    ],
    "textures" : [
        {
            "source" : 0
        },
        {
            "source" : 1
        },
        {
            "source" : 2
        },
        {
            "source" : 3
        },
        {
            "source" : 4
        },
        {
            "source" : 5
        },
        {
            "source" : 6
        },
        {
            "source" : 7
        },
        {
            "source" : 8
        }
    ],
    "images" : [
        {
            "mimeType" : "image/jpeg",
            "name" : "shkaaafc_2K_Normal",
            "uri" : "textures/shkaaafc_2K_Normal.jpg"
        },
        {
            "mimeType" : "image/jpeg",
            "name" : "shkaaafc_2K_Albedo",
            "uri" : "textures/shkaaafc_2K_Albedo.jpg"
        },
        {
            "mimeType" : "image/jpeg",
            "name" : "shkaaafc_2K_Roughness",
            "uri" : "textures/shkaaafc_2K_Roughness.jpg"
        },
        {
            "mimeType" : "image/jpeg",
            "name" : "udemeefv_2K_Normal",
            "uri" : "textures/udemeefv_2K_Normal.jpg"
        },
        {
            "mimeType" : "image/jpeg",
            "name" : "udemeefv_2K_Albedo",
            "uri" : "textures/udemeefv_2K_Albedo.jpg"
        },
        {
            "mimeType" : "image/jpeg",
            "name" : "udemeefv_2K_Roughness",
            "uri" : "textures/udemeefv_2K_Roughness.jpg"
        },
        {
            "mimeType" : "image/jpeg",
            "name" : "ugzobcglw_2K_Normal",
            "uri" : "textures/ugzobcglw_2K_Normal.jpg"
        },
        {
            "mimeType" : "image/jpeg",
            "name" : "ugzobcglw_2K_Albedo",
            "uri" : "textures/ugzobcglw_2K_Albedo.jpg"
        },
        {
            "mimeType" : "image/jpeg",
            "name" : "ugzobcglw_2K_Roughness",
            "uri" : "textures/ugzobcglw_2K_Roughness.jpg"
        }
    ],
    "accessors" : [
        {
            "bufferView" : 0,
            "componentType" : 5126,
            "count" : 52,
            "max" : [
                10,
                300,
                100
            ],
            "min" : [
                -10,
                0,
                -100
            ],
            "type" : "VEC3"
        },
        {
            "bufferView" : 1,
            "componentType" : 5126,
            "count" : 52,
            "type" : "VEC3"
        },
        {
            "bufferView" : 2,
            "componentType" : 5126,
            "count" : 52,
            "type" : "VEC4"
        },
        {
            "bufferView" : 3,
            "componentType" : 5126,
            "count" : 52,
            "type" : "VEC2"
        },
        {
            "bufferView" : 4,
            "componentType" : 5123,
            "count" : 78,
            "type" : "SCALAR"
        },
        {
            "bufferView" : 5,
            "componentType" : 5126,
            "count" : 176,
            "max" : [
                74.65655517578125,
                180.33737182617188,
                -70.3763427734375
            ],
            "min" : [
                -1.7691993713378906,
                1.0595169067382812,
                -80.37745666503906
            ],
            "type" : "VEC3"
        },
        {
            "bufferView" : 6,
            "componentType" : 5126,
            "count" : 176,
            "type" : "VEC3"
        },
        {
            "bufferView" : 7,
            "componentType" : 5126,
            "count" : 176,
            "type" : "VEC4"
        },
        {
            "bufferView" : 8,
            "componentType" : 5126,
            "count" : 176,
            "type" : "VEC2"
        },
        {
            "bufferView" : 9,
            "componentType" : 5123,
            "count" : 264,
            "type" : "SCALAR"
        },
        {
            "bufferView" : 10,
            "componentType" : 5126,
            "count" : 176,
            "max" : [
                72.71766662597656,
                180.33737182617188,
                89.7547607421875
            ],
            "min" : [
                -5.313407897949219,
                1.0595169067382812,
                71.64239501953125
            ],
            "type" : "VEC3"
        },
        {
            "bufferView" : 11,
            "componentType" : 5126,
            "count" : 176,
            "type" : "VEC3"
        },
        {
            "bufferView" : 12,
            "componentType" : 5126,
            "count" : 176,
            "type" : "VEC4"
        },
        {
            "bufferView" : 13,
            "componentType" : 5126,
            "count" : 176,
            "type" : "VEC2"
        },
        {
            "bufferView" : 14,
            "componentType" : 5123,
            "count" : 264,
            "type" : "SCALAR"
        },
        {
            "bufferView" : 15,
            "componentType" : 5126,
            "count" : 4,
            "max" : [
                100,
                290,
                100
            ],
            "min" : [
                -100,
                290,
                -100
            ],
            "type" : "VEC3"
        },
        {
            "bufferView" : 16,
            "componentType" : 5126,
            "count" : 4,
            "type" : "VEC3"
        },
        {
            "bufferView" : 17,
            "componentType" : 5126,
            "count" : 4,
            "type" : "VEC4"
        },
        {
            "bufferView" : 18,
            "componentType" : 5126,
            "count" : 4,
            "type" : "VEC2"
        },
        {
            "bufferView" : 19,
            "componentType" : 5123,
            "count" : 6,
            "type" : "SCALAR"
        }
    ],
    "bufferViews" : [
        {
            "buffer" : 0,
            "byteLength" : 624,
            "byteOffset" : 0
        },
        {
            "buffer" : 0,
            "byteLength" : 624,
            "byteOffset" : 624
        },
        {
            "buffer" : 0,
            "byteLength" : 832,
            "byteOffset" : 1248
        },
        {
            "buffer" : 0,
            "byteLength" : 416,
            "byteOffset" : 2080
        },
        {
            "buffer" : 0,
            "byteLength" : 156,
            "byteOffset" : 2496
        },
        {
            "buffer" : 0,
            "byteLength" : 2112,
            "byteOffset" : 2652
        },
        {
            "buffer" : 0,
            "byteLength" : 2112,
            "byteOffset" : 4764
        },
        {
            "buffer" : 0,
            "byteLength" : 2816,
            "byteOffset" : 6876
        },
        {
            "buffer" : 0,
            "byteLength" : 1408,
            "byteOffset" : 9692
        },
        {
            "buffer" : 0,
            "byteLength" : 528,
            "byteOffset" : 11100
        },
        {
            "buffer" : 0,
            "byteLength" : 2112,
            "byteOffset" : 11628
        },
        {
            "buffer" : 0,
            "byteLength" : 2112,
            "byteOffset" : 13740
        },
        {
            "buffer" : 0,
            "byteLength" : 2816,
            "byteOffset" : 15852
        },
        {
            "buffer" : 0,
            "byteLength" : 1408,
            "byteOffset" : 18668
        },
        {
            "buffer" : 0,
            "byteLength" : 528,
            "byteOffset" : 20076
        },
        {
            "buffer" : 0,
            "byteLength" : 48,
            "byteOffset" : 20604
        },
        {
            "buffer" : 0,
            "byteLength" : 48,
            "byteOffset" : 20652
        },
        {
            "buffer" : 0,
            "byteLength" : 64,
            "byteOffset" : 20700
        },
        {
            "buffer" : 0,
            "byteLength" : 32,
            "byteOffset" : 20764
        },
        {
            "buffer" : 0,
            "byteLength" : 12,
            "byteOffset" : 20796
        }
    ],
    "buffers" : [
        {
            "byteLength" : 20808,
            "uri" : "Cluster-Door.bin"
        }
    ]
}
