{
    "asset" : {
        "copyright" : "Oguzhan Yagci",
        "generator" : "Khronos glTF Blender I/O v1.1.46",
        "version" : "2.0"
    },
    "scene" : 0,
    "scenes" : [
        {
            "name" : "Scene",
            "nodes" : [
                0,
                1
            ]
        }
    ],
    "nodes" : [
        {
            "mesh" : 0,
            "name" : "Wall"
        },
        {
            "mesh" : 1,
            "name" : "Cube.003"
        }
    ],
    "materials" : [
        {
            "doubleSided" : true,
            "emissiveFactor" : [
                0,
                0,
                0
            ],
            "name" : "Brushed_Aluminum_shkaaafc",
            "normalTexture" : {
                "index" : 0,
                "texCoord" : 0
            },
            "pbrMetallicRoughness" : {
                "baseColorTexture" : {
                    "index" : 1,
                    "texCoord" : 0
                },
                "metallicFactor" : 1,
                "metallicRoughnessTexture" : {
                    "index" : 2,
                    "texCoord" : 0
                }
            }
        },
        {
            "doubleSided" : true,
            "emissiveFactor" : [
                0,
                0,
                0
            ],
            "name" : "Painted_Metal_Door_2x1_ugzobcglw",
            "normalTexture" : {
                "index" : 3,
                "texCoord" : 0
            },
            "pbrMetallicRoughness" : {
                "baseColorTexture" : {
                    "index" : 4,
                    "texCoord" : 0
                },
                "metallicFactor" : 1,
                "metallicRoughnessTexture" : {
                    "index" : 5,
                    "texCoord" : 0
                }
            }
        }
    ],
    "meshes" : [
        {
            "name" : "Cube.016",
            "primitives" : [
                {
                    "attributes" : {
                        "POSITION" : 0,
                        "NORMAL" : 1,
                        "TANGENT" : 2,
                        "TEXCOORD_0" : 3
                    },
                    "indices" : 4,
                    "material" : 0
                }
            ]
        },
        {
            "name" : "Cube.011",
            "primitives" : [
                {
                    "attributes" : {
                        "POSITION" : 5,
                        "NORMAL" : 6,
                        "TANGENT" : 7,
                        "TEXCOORD_0" : 8
                    },
                    "indices" : 9,
                    "material" : 1
                }
            ]
        }
    ],
    "textures" : [
        {
            "source" : 0
        },
        {
            "source" : 1
        },
        {
            "source" : 2
        },
        {
            "source" : 3
        },
        {
            "source" : 4
        },
        {
            "source" : 5
        }
    ],
    "images" : [
        {
            "mimeType" : "image/jpeg",
            "name" : "shkaaafc_2K_Normal",
            "uri" : "textures/shkaaafc_2K_Normal.jpg"
        },
        {
            "mimeType" : "image/jpeg",
            "name" : "shkaaafc_2K_Albedo",
            "uri" : "textures/shkaaafc_2K_Albedo.jpg"
        },
        {
            "mimeType" : "image/jpeg",
            "name" : "shkaaafc_2K_Roughness",
            "uri" : "textures/shkaaafc_2K_Roughness.jpg"
        },
        {
            "mimeType" : "image/jpeg",
            "name" : "ugzobcglw_2K_Normal",
            "uri" : "textures/ugzobcglw_2K_Normal.jpg"
        },
        {
            "mimeType" : "image/jpeg",
            "name" : "ugzobcglw_2K_Albedo",
            "uri" : "textures/ugzobcglw_2K_Albedo.jpg"
        },
        {
            "mimeType" : "image/jpeg",
            "name" : "ugzobcglw_2K_Roughness",
            "uri" : "textures/ugzobcglw_2K_Roughness.jpg"
        }
    ],
    "accessors" : [
        {
            "bufferView" : 0,
            "componentType" : 5126,
            "count" : 44,
            "max" : [
                9.99998950958252,
                300,
                100
            ],
            "min" : [
                -10.00001049041748,
                0,
                -100
            ],
            "type" : "VEC3"
        },
        {
            "bufferView" : 1,
            "componentType" : 5126,
            "count" : 44,
            "type" : "VEC3"
        },
        {
            "bufferView" : 2,
            "componentType" : 5126,
            "count" : 44,
            "type" : "VEC4"
        },
        {
            "bufferView" : 3,
            "componentType" : 5126,
            "count" : 44,
            "type" : "VEC2"
        },
        {
            "bufferView" : 4,
            "componentType" : 5123,
            "count" : 66,
            "type" : "SCALAR"
        },
        {
            "bufferView" : 5,
            "componentType" : 5126,
            "count" : 4,
            "max" : [
                100,
                290,
                100
            ],
            "min" : [
                -100,
                290,
                -100
            ],
            "type" : "VEC3"
        },
        {
            "bufferView" : 6,
            "componentType" : 5126,
            "count" : 4,
            "type" : "VEC3"
        },
        {
            "bufferView" : 7,
            "componentType" : 5126,
            "count" : 4,
            "type" : "VEC4"
        },
        {
            "bufferView" : 8,
            "componentType" : 5126,
            "count" : 4,
            "type" : "VEC2"
        },
        {
            "bufferView" : 9,
            "componentType" : 5123,
            "count" : 6,
            "type" : "SCALAR"
        }
    ],
    "bufferViews" : [
        {
            "buffer" : 0,
            "byteLength" : 528,
            "byteOffset" : 0
        },
        {
            "buffer" : 0,
            "byteLength" : 528,
            "byteOffset" : 528
        },
        {
            "buffer" : 0,
            "byteLength" : 704,
            "byteOffset" : 1056
        },
        {
            "buffer" : 0,
            "byteLength" : 352,
            "byteOffset" : 1760
        },
        {
            "buffer" : 0,
            "byteLength" : 132,
            "byteOffset" : 2112
        },
        {
            "buffer" : 0,
            "byteLength" : 48,
            "byteOffset" : 2244
        },
        {
            "buffer" : 0,
            "byteLength" : 48,
            "byteOffset" : 2292
        },
        {
            "buffer" : 0,
            "byteLength" : 64,
            "byteOffset" : 2340
        },
        {
            "buffer" : 0,
            "byteLength" : 32,
            "byteOffset" : 2404
        },
        {
            "buffer" : 0,
            "byteLength" : 12,
            "byteOffset" : 2436
        }
    ],
    "buffers" : [
        {
            "byteLength" : 2448,
            "uri" : "Cluster-Wall.bin"
        }
    ]
}
